<svg width="40" height="42" viewBox="0 0 40 42" fill="none" xmlns="http://www.w3.org/2000/svg">
<path d="M34.2 42C34 42 33.8167 41.9667 33.65 41.9C33.4833 41.8333 33.3167 41.7167 33.15 41.55L21.05 29.45C20.8833 29.2833 20.7667 29.1167 20.7 28.95C20.6333 28.7833 20.6 28.6 20.6 28.4C20.6 28.2 20.6333 28.0167 20.7 27.85C20.7667 27.6833 20.8833 27.5167 21.05 27.35L25.3 23.1C25.4667 22.9333 25.6333 22.8167 25.8 22.75C25.9667 22.6833 26.15 22.65 26.35 22.65C26.55 22.65 26.7333 22.6833 26.9 22.75C27.0667 22.8167 27.2333 22.9333 27.4 23.1L39.5 35.2C39.6667 35.3667 39.7833 35.5333 39.85 35.7C39.9167 35.8667 39.95 36.05 39.95 36.25C39.95 36.45 39.9167 36.6333 39.85 36.8C39.7833 36.9667 39.6667 37.1333 39.5 37.3L35.25 41.55C35.0833 41.7167 34.9167 41.8333 34.75 41.9C34.5833 41.9667 34.4 42 34.2 42ZM34.2 38.4L36.35 36.25L26.35 26.25L24.2 28.4L34.2 38.4ZM5.75 42C5.55 42 5.35833 41.9667 5.175 41.9C4.99167 41.8333 4.81667 41.7167 4.65 41.55L0.45 37.35C0.283333 37.1833 0.166667 37.0083 0.1 36.825C0.0333333 36.6417 0 36.45 0 36.25C0 36.05 0.0333333 35.8667 0.1 35.7C0.166667 35.5333 0.283333 35.3667 0.45 35.2L11.7 23.95H15.95L17.85 22.05L9.1 13.3H6.25L0 7.05L4.95 2.1L11.2 8.35V11.2L19.95 19.95L26.45 13.45L23.1 10.1L25.9 7.3H20.25L19.35 6.4L25.75 0L26.65 0.9V6.55L29.45 3.75L37.9 12.2C38.4 12.7 38.7917 13.275 39.075 13.925C39.3583 14.575 39.5 15.2667 39.5 16C39.5 16.6667 39.3917 17.3083 39.175 17.925C38.9583 18.5417 38.65 19.1 38.25 19.6L34 15.35L31.2 18.15L28.6 15.55L18.05 26.1V30.3L6.8 41.55C6.63333 41.7167 6.46667 41.8333 6.3 41.9C6.13333 41.9667 5.95 42 5.75 42ZM5.75 38.4L15.75 28.4V26.25H13.6L3.6 36.25L5.75 38.4ZM5.75 38.4L3.6 36.25L4.7 37.3L5.75 38.4Z" fill="#257B98"/>
</svg>
