<svg width="36" height="42" viewBox="0 0 36 42" fill="none" xmlns="http://www.w3.org/2000/svg">
<path d="M18 42L12 36H3C2.2 36 1.5 35.6917 0.9 35.075C0.3 34.4583 0 33.7667 0 33V3C0 2.2 0.3 1.5 0.9 0.9C1.5 0.3 2.2 0 3 0H33C33.7667 0 34.4583 0.3 35.075 0.9C35.6917 1.5 36 2.2 36 3V33C36 33.7667 35.6917 34.4583 35.075 35.075C34.4583 35.6917 33.7667 36 33 36H24L18 42ZM3 33H13.2L18 37.8L22.8 33H33V3H3V33ZM17.8514 29.1C18.3838 29.1 18.8333 28.9162 19.2 28.5486C19.5667 28.181 19.75 27.731 19.75 27.1986C19.75 26.6662 19.5662 26.2167 19.1986 25.85C18.831 25.4833 18.381 25.3 17.8486 25.3C17.3162 25.3 16.8667 25.4838 16.5 25.8514C16.1333 26.219 15.95 26.669 15.95 27.2014C15.95 27.7338 16.1338 28.1833 16.5014 28.55C16.869 28.9167 17.319 29.1 17.8514 29.1ZM19.05 21.7C19.05 20.6667 19.2167 19.825 19.55 19.175C19.8833 18.525 20.462 17.788 21.2861 16.9639C22.3954 15.8546 23.1667 14.875 23.6 14.025C24.0333 13.175 24.25 12.2833 24.25 11.35C24.25 9.58333 23.6833 8.18333 22.55 7.15C21.4167 6.11667 19.8913 5.6 17.9739 5.6C16.245 5.6 14.7755 6.00833 13.5653 6.825C12.3551 7.64167 11.4667 8.76667 10.9 10.2L13.55 11.3C14.0167 10.3667 14.62 9.65833 15.36 9.175C16.1 8.69167 16.9633 8.45 17.95 8.45C19.0167 8.45 19.8583 8.71667 20.475 9.25C21.0917 9.78333 21.4 10.5183 21.4 11.4549C21.4 12.1183 21.2167 12.7583 20.85 13.375C20.4833 13.9917 19.8667 14.7167 19 15.55C17.7667 16.7167 16.9917 17.7167 16.675 18.55C16.3583 19.3833 16.2 20.4333 16.2 21.7H19.05Z" fill="#653BA9"/>
</svg>
